<?xml version="1.0" encoding="UTF-8" standalone="no"?>
<!-- Created with Inkscape (http://www.inkscape.org/) -->

<svg
   xmlns:dc="http://purl.org/dc/elements/1.1/"
   xmlns:cc="http://creativecommons.org/ns#"
   xmlns:rdf="http://www.w3.org/1999/02/22-rdf-syntax-ns#"
   xmlns:svg="http://www.w3.org/2000/svg"
   xmlns="http://www.w3.org/2000/svg"
   xmlns:xlink="http://www.w3.org/1999/xlink"
   xmlns:sodipodi="http://sodipodi.sourceforge.net/DTD/sodipodi-0.dtd"
   xmlns:inkscape="http://www.inkscape.org/namespaces/inkscape"
   id="Layer_1"
   sodipodi:docname="hex nut.svg"
   xml:space="preserve"
   version="1.0"
   inkscape:version="0.91 r13725"
   viewBox="0 0 40.000002 39.999998"><defs
     id="defs5258"><linearGradient
       id="linearGradient5854"
       inkscape:collect="always"><stop
         id="stop5856"
         offset="0"
         style="stop-color:#666666;stop-opacity:1" /><stop
         id="stop5858"
         offset="1"
         style="stop-color:#e6e6e6;stop-opacity:1" /></linearGradient><linearGradient
       id="linearGradient5848"
       inkscape:collect="always"><stop
         id="stop5850"
         offset="0"
         style="stop-color:#666666;stop-opacity:1" /><stop
         id="stop5852"
         offset="1"
         style="stop-color:#e6e6e6;stop-opacity:1" /></linearGradient><linearGradient
       inkscape:collect="always"
       id="linearGradient5800"><stop
         style="stop-color:#666666;stop-opacity:1"
         offset="0"
         id="stop5802" /><stop
         style="stop-color:#cccccc;stop-opacity:1"
         offset="1"
         id="stop5804" /></linearGradient><linearGradient
       inkscape:collect="always"
       xlink:href="#linearGradient5848"
       id="linearGradient5806"
       x1="15.709497"
       y1="32.812527"
       x2="24.72368"
       y2="9.7201977"
       gradientUnits="userSpaceOnUse" /><linearGradient
       inkscape:collect="always"
       xlink:href="#linearGradient5854"
       id="linearGradient5814"
       x1="8.6141071"
       y1="34.301502"
       x2="20.229084"
       y2="8.9340448"
       gradientUnits="userSpaceOnUse" /><linearGradient
       inkscape:collect="always"
       xlink:href="#linearGradient5800"
       id="linearGradient5846"
       x1="-11.37165"
       y1="49.509251"
       x2="9.9260502"
       y2="49.509251"
       gradientUnits="userSpaceOnUse" /><linearGradient
       inkscape:collect="always"
       xlink:href="#linearGradient5800"
       id="linearGradient5866"
       x1="7.2340293"
       y1="46.473679"
       x2="0.24830383"
       y2="58.058762"
       gradientUnits="userSpaceOnUse" /><linearGradient
       inkscape:collect="always"
       xlink:href="#linearGradient5800"
       id="linearGradient5874"
       x1="7.7437239"
       y1="53.740589"
       x2="0.50796127"
       y2="58.324615"
       gradientUnits="userSpaceOnUse" /><linearGradient
       inkscape:collect="always"
       xlink:href="#linearGradient5800"
       id="linearGradient5882"
       x1="6.2667413"
       y1="55.668472"
       x2="-0.365668"
       y2="57.671669"
       gradientUnits="userSpaceOnUse" /></defs><sodipodi:namedview
     id="namedview31"
     bordercolor="#666666"
     inkscape:pageshadow="2"
     guidetolerance="10"
     pagecolor="#ffffff"
     gridtolerance="10"
     inkscape:window-maximized="0"
     inkscape:zoom="8"
     objecttolerance="10"
     borderopacity="1"
     inkscape:current-layer="layer5"
     inkscape:cx="24.12062"
     inkscape:cy="14.781862"
     inkscape:window-y="0"
     units="pt"
     inkscape:window-x="136"
     inkscape:window-width="1093"
     showgrid="false"
     inkscape:pageopacity="0"
     inkscape:window-height="756"
     inkscape:document-units="pt" /><g
     inkscape:groupmode="layer"
     id="layer5"
     inkscape:label="Layer 3"><g
       inkscape:export-xdpi="73.010002"
       transform="matrix(1.0597113,0,0,1.1700063,20.73043,-36.908574)"
       inkscape:export-filename="/home/rutledge/art/labels/keepers/nut.png"
       inkscape:export-ydpi="73.010002"
       style="stroke-width:0.3125;fill:url(#linearGradient5846);fill-opacity:1.0"
       id="g5830"><path
         inkscape:connector-curvature="0"
         d="m 5.49,47.654 c 0,5.1087 -3.7396,9.6788 -8.3527,10.208 -4.613,0.52883 -8.3527,-3.1839 -8.3527,-8.2925 0,-5.1087 3.7396,-9.6788 8.3527,-10.208 4.613,-0.52883 8.3527,3.1839 8.3527,8.2925 z"
         style="fill:url(#linearGradient5846);stroke:#000000;stroke-width:0.3125;stroke-linecap:round;stroke-linejoin:round;fill-opacity:1.0"
         id="path5832" /><path
         inkscape:connector-curvature="0"
         d="m 9.7698,49.449 c 0,5.1087 -3.7396,9.6788 -8.3527,10.208 -4.613,0.52883 -8.3527,-3.1839 -8.3527,-8.2925 0,-5.1087 3.7396,-9.6788 8.3527,-10.208 4.613,-0.52883 8.3527,3.1839 8.3527,8.2925 z"
         style="fill:url(#linearGradient5882);stroke:#000000;stroke-width:0.3125;stroke-linecap:round;stroke-linejoin:round;fill-opacity:1"
         id="path5834" /></g></g><g
     inkscape:groupmode="layer"
     id="layer4"
     inkscape:label="Layer 2"><g
       id="g3660"
       style="stroke-width:0.3125;fill:#808080"
       inkscape:export-ydpi="73.010002"
       inkscape:export-filename="/home/rutledge/art/labels/keepers/nut.png"
       transform="matrix(1.0605,0,0,1.0605,18.731,-32.612)"
       inkscape:export-xdpi="73.010002"><path
         id="path3628"
         style="fill:#808080;stroke:#000000;stroke-width:0.3125;stroke-linecap:round;stroke-linejoin:round"
         d="m 5.49,47.654 c 0,5.1087 -3.7396,9.6788 -8.3527,10.208 -4.613,0.52883 -8.3527,-3.1839 -8.3527,-8.2925 0,-5.1087 3.7396,-9.6788 8.3527,-10.208 4.613,-0.52883 8.3527,3.1839 8.3527,8.2925 z"
         inkscape:connector-curvature="0" /><path
         id="path3632"
         style="fill:url(#linearGradient5874);stroke:#000000;stroke-width:0.3125;stroke-linecap:round;stroke-linejoin:round;fill-opacity:1"
         d="m 9.7698,49.449 c 0,5.1087 -3.7396,9.6788 -8.3527,10.208 -4.613,0.52883 -8.3527,-3.1839 -8.3527,-8.2925 0,-5.1087 3.7396,-9.6788 8.3527,-10.208 4.613,-0.52883 8.3527,3.1839 8.3527,8.2925 z"
         inkscape:connector-curvature="0" /></g><path
       transform="matrix(1.0605,0,0,1.0605,18.731,-32.612)"
       id="path3634"
       style="stroke-width:0.3125;fill:url(#linearGradient5866);stroke:#000000;stroke-linecap:round;stroke-linejoin:round;fill-opacity:1"
       d="m 8.3432,48.85 c 0,5.1087 -3.7396,9.6788 -8.3527,10.208 -4.613,0.529 -8.3526,-3.184 -8.3526,-8.293 0,-5.1087 3.7396,-9.6788 8.3527,-10.208 4.613,-0.52883 8.3527,3.1839 8.3527,8.2925 z"
       inkscape:connector-curvature="0" /></g><g
     inkscape:groupmode="layer"
     id="layer3"
     inkscape:label="Layer 1"><path
       transform="matrix(1.0605,0,0,1.0605,18.731,-32.612)"
       id="path3630"
       style="stroke-width:0.3125;fill:#ffffff;stroke:#000000;stroke-linecap:round;stroke-linejoin:round"
       d="m 6.9166,48.252 c 0,5.1087 -3.7396,9.6788 -8.3527,10.208 -4.613,0.52883 -8.3527,-3.1839 -8.3527,-8.2925 0,-5.1087 3.7396,-9.6788 8.3527,-10.208 4.613,-0.52883 8.3527,3.1839 8.3527,8.2925 z"
       inkscape:connector-curvature="0" /></g><path
     id="path3666"
     style="stroke-linejoin:round;stroke:#000000;stroke-width:0.3314;fill:url(#linearGradient5814);fill-opacity:1"
     d="m13.814 38.375-5.2564-2.969-8.0863-14.25 7.9579-15.854 16.106-1.5905 6.4 0.864-15.332 6.1625-6.1872 11.569 4.3982 16.068z"
     inkscape:export-ydpi="73.010002"
     sodipodi:nodetypes="ccccccccc"
     inkscape:export-filename="/home/rutledge/art/labels/keepers/nut.png"
     inkscape:export-xdpi="73.010002" /><path
     id="path3615"
     style="fill:url(#linearGradient5806);fill-opacity:1;stroke:#000000;stroke-width:0.33140001;stroke-linecap:round;stroke-linejoin:round"
     d="M 30.935,4.5577 13.702,6.281 5.1514,23.183 13.801,38.394 31.001,36.704 39.584,19.769 30.935,4.558 Z m -8.02,6.8932 c 4.4667,-0.0097 7.9537,3.7694 7.9537,8.8485 0,2.483124 -0.83808,4.848735 -2.217024,6.736934 -1.629646,2.231489 -4.014699,3.796192 -6.664576,4.100066 -4.8921,0.56082 -8.8485,-3.3976 -8.8485,-8.8153 0,-5.4177 3.9564,-10.243 8.8485,-10.804 0.30576,-0.03505 0.63015,-0.06563 0.92793,-0.06628 z"
     inkscape:export-ydpi="73.010002"
     inkscape:export-filename="/home/rutledge/art/labels/keepers/nut.png"
     inkscape:export-xdpi="73.010002"
     inkscape:connector-curvature="0"
     sodipodi:nodetypes="cccccccccsscsccc" /><path
     id="path3621"
     style="stroke:#000000;stroke-width:.26512pt;fill:none"
     d="m0.50526 21.2 4.6589 1.939"
     inkscape:export-ydpi="73.010002"
     sodipodi:nodetypes="cc"
     inkscape:export-filename="/home/rutledge/art/labels/keepers/nut.png"
     inkscape:export-xdpi="73.010002" /><path
     id="path3669"
     style="stroke:#000000;stroke-width:.26512pt;fill:none"
     d="m8.4888 5.3865 5.2062 0.9113"
     inkscape:export-ydpi="73.010002"
     sodipodi:nodetypes="cc"
     inkscape:export-filename="/home/rutledge/art/labels/keepers/nut.png"
     inkscape:export-xdpi="73.010002" /><metadata
     id="metadata5256"><rdf:RDF><cc:Work><dc:format>image/svg+xml</dc:format><dc:type
           rdf:resource="http://purl.org/dc/dcmitype/StillImage" /><cc:license
           rdf:resource="http://creativecommons.org/licenses/publicdomain/" /><dc:publisher><cc:Agent
             rdf:about="http://openclipart.org/"><dc:title>Openclipart</dc:title></cc:Agent></dc:publisher><dc:title></dc:title><dc:date>2011-04-12T23:14:34</dc:date><dc:description>Drawn from scratch in Inkscape.</dc:description><dc:source>https://openclipart.org/detail/132223/hex-nut-for-bolts-by-ecloud</dc:source><dc:creator><cc:Agent><dc:title>ecloud</dc:title></cc:Agent></dc:creator><dc:subject><rdf:Bag><rdf:li>bolt</rdf:li><rdf:li>hex nut</rdf:li><rdf:li>nut</rdf:li><rdf:li>screw</rdf:li></rdf:Bag></dc:subject></cc:Work><cc:License
         rdf:about="http://creativecommons.org/licenses/publicdomain/"><cc:permits
           rdf:resource="http://creativecommons.org/ns#Reproduction" /><cc:permits
           rdf:resource="http://creativecommons.org/ns#Distribution" /><cc:permits
           rdf:resource="http://creativecommons.org/ns#DerivativeWorks" /></cc:License></rdf:RDF></metadata></svg>