<?xml version="1.0" encoding="UTF-8" standalone="no"?>
<!-- Created with Inkscape (http://www.inkscape.org/) -->

<svg
   xmlns:osb="http://www.openswatchbook.org/uri/2009/osb"
   xmlns:dc="http://purl.org/dc/elements/1.1/"
   xmlns:cc="http://creativecommons.org/ns#"
   xmlns:rdf="http://www.w3.org/1999/02/22-rdf-syntax-ns#"
   xmlns:svg="http://www.w3.org/2000/svg"
   xmlns="http://www.w3.org/2000/svg"
   xmlns:xlink="http://www.w3.org/1999/xlink"
   xmlns:sodipodi="http://sodipodi.sourceforge.net/DTD/sodipodi-0.dtd"
   xmlns:inkscape="http://www.inkscape.org/namespaces/inkscape"
   id="svg39954"
   version="1.1"
   inkscape:version="0.91 r13725"
   width="304.6875"
   height="125.625"
   viewBox="0 0 304.6875 125.625"
   sodipodi:docname="Bolt.svg">
  <metadata
     id="metadata39960">
    <rdf:RDF>
      <cc:Work
         rdf:about="">
        <dc:format>image/svg+xml</dc:format>
        <dc:type
           rdf:resource="http://purl.org/dc/dcmitype/StillImage" />
        <dc:title></dc:title>
      </cc:Work>
    </rdf:RDF>
  </metadata>
  <defs
     id="defs39958">
    <linearGradient
       inkscape:collect="always"
       id="linearGradient5587">
      <stop
         style="stop-color:#1a1a1a;stop-opacity:1;"
         offset="0"
         id="stop5589" />
      <stop
         style="stop-color:#1a1a1a;stop-opacity:0;"
         offset="1"
         id="stop5591" />
    </linearGradient>
    <linearGradient
       inkscape:collect="always"
       id="linearGradient4135"
       osb:paint="gradient">
      <stop
         style="stop-color:#b3b3b3;stop-opacity:1;"
         offset="0"
         id="stop4137" />
      <stop
         style="stop-color:#b3b3b3;stop-opacity:0;"
         offset="1"
         id="stop4139" />
    </linearGradient>
    <linearGradient
       inkscape:collect="always"
       xlink:href="#linearGradient5587"
       id="linearGradient5593"
       x1="31.789513"
       y1="88.665176"
       x2="31.417013"
       y2="1.1779101"
       gradientUnits="userSpaceOnUse" />
    <linearGradient
       inkscape:collect="always"
       xlink:href="#linearGradient5587"
       id="linearGradient5603"
       x1="178.32629"
       y1="108.8641"
       x2="178.23468"
       y2="16.961071"
       gradientUnits="userSpaceOnUse" />
  </defs>
  <sodipodi:namedview
     pagecolor="#ffffff"
     bordercolor="#666666"
     borderopacity="1"
     objecttolerance="10"
     gridtolerance="10"
     guidetolerance="10"
     inkscape:pageopacity="0"
     inkscape:pageshadow="2"
     inkscape:window-width="1366"
     inkscape:window-height="705"
     id="namedview39956"
     showgrid="false"
     inkscape:zoom="2.6761728"
     inkscape:cx="158.96859"
     inkscape:cy="59.000674"
     inkscape:window-x="-8"
     inkscape:window-y="-8"
     inkscape:window-maximized="1"
     inkscape:current-layer="svg39954" />
  <g
     id="g5657">
    <path
       inkscape:connector-curvature="0"
       id="path4133-6"
       d="M 59.888757,125.34901 61.544667,1.4317201 13.523268,1.1557351 3.5878057,26.54636 1.1039402,55.524791 l 0.8279552,24.0107 1.3799253,18.215013 7.4515963,23.182746 z"
       style="fill:#ffffff;fill-opacity:1;fill-rule:nonzero;stroke:#000000;stroke-width:1px;stroke-linecap:butt;stroke-linejoin:miter;stroke-opacity:1" />
    <path
       inkscape:connector-curvature="0"
       id="path4133"
       d="M 59.888757,125.34901 61.544667,1.431725 13.523268,1.15574 3.5878057,26.546365 1.1039402,55.524796 l 0.8279552,24.0107 1.3799253,18.215013 7.4515963,23.182741 z"
       style="fill:url(#linearGradient5593);fill-rule:nonzero;stroke:#000000;stroke-width:1px;stroke-linecap:butt;stroke-linejoin:miter;stroke-opacity:1;fill-opacity:1" />
    <path
       inkscape:connector-curvature="0"
       id="path5595-6"
       d="m 61.820652,16.334917 32.566237,-0.275985 6.899631,2.20788 8.55553,11.315388 8.00357,-12.971298 10.76342,11.867357 7.72758,-10.487432 9.38349,11.591373 8.55554,-12.695313 8.55552,13.799253 9.65948,-12.971298 9.65948,12.143343 6.89962,-12.695313 11.03941,12.419328 6.89962,-12.971298 11.86736,14.075238 7.72758,-13.247283 11.0394,13.247283 7.4516,-11.591372 10.21145,11.591372 8.00356,-12.419328 10.76342,11.591373 7.4516,-11.315388 11.31538,14.351223 3.86379,-10.211447 2.75986,-3.035835 1.65591,10.211447 1.10394,19.318954 0.82795,21.526834 -0.55197,18.215014 -1.37992,11.591373 -0.82796,1.37993 -4.96773,-2.483871 -7.4516,9.383491 -9.93546,-12.419327 -7.4516,13.247287 -10.21144,-14.075242 -8.27955,12.971302 -9.93547,-12.971302 -8.55553,13.247282 -10.21145,-13.247282 -7.72758,13.799252 -10.76342,-12.971297 -9.10751,11.591377 -9.93546,-13.247287 -8.27955,13.799257 -10.21145,-14.351227 -7.45159,14.075237 -10.21144,-13.247282 -7.4516,12.695312 -10.48743,-12.419327 -7.72758,13.247287 -9.93546,-12.419332 -6.34766,11.039402 -6.89962,-5.24371 -2.48387,5.5197 -38.637908,-1.37993 z"
       style="fill:#ffffff;fill-opacity:1;fill-rule:evenodd;stroke:#000000;stroke-width:1px;stroke-linecap:butt;stroke-linejoin:miter;stroke-opacity:1" />
    <path
       inkscape:connector-curvature="0"
       id="path5595"
       d="m 61.820652,16.334918 32.566237,-0.275985 6.899631,2.20788 8.55553,11.315388 8.00357,-12.971298 10.76342,11.867357 7.72758,-10.487432 9.38349,11.591373 8.55554,-12.695313 8.55553,13.799253 9.65948,-12.971298 9.65948,12.143343 6.89962,-12.695313 11.03941,12.419328 6.89962,-12.971298 11.86736,14.075238 7.72758,-13.247283 11.0394,13.247283 7.4516,-11.591372 10.21145,11.591372 8.00356,-12.419328 10.76342,11.591373 7.4516,-11.315388 11.31538,14.351223 3.86379,-10.211447 2.75986,-3.035835 1.65591,10.211447 1.10394,19.318954 0.82795,21.526834 -0.55197,18.215014 -1.37992,11.591372 -0.82796,1.37993 -4.96773,-2.48387 -7.4516,9.38349 -9.93546,-12.419326 -7.4516,13.247286 -10.21144,-14.075241 -8.27955,12.971301 -9.93547,-12.971301 -8.55553,13.247281 -10.21145,-13.247281 -7.72758,13.799251 -10.76342,-12.971296 -9.10751,11.591376 -9.93546,-13.247286 -8.27955,13.799256 -10.21145,-14.351226 -7.45159,14.075236 -10.21145,-13.247281 -7.4516,12.695311 -10.48743,-12.419326 -7.72758,13.247286 -9.93546,-12.419331 -6.34766,11.039401 -6.89962,-5.24371 -2.48387,5.5197 -38.637908,-1.37993 z"
       style="fill:url(#linearGradient5603);fill-rule:evenodd;stroke:#000000;stroke-width:1px;stroke-linecap:butt;stroke-linejoin:miter;stroke-opacity:1;fill-opacity:1" />
    <path
       inkscape:connector-curvature="0"
       id="path39970"
       d="M 31.495335,124.902 C 9.5185969,124.60257 10.223624,124.94033 6.2097777,112.78865 1.8364131,99.54855 0.59503,88.901327 0.60156067,64.6875 0.60978964,34.176801 3.9142053,14.851273 10.98838,3.9412726 l 2.491284,-3.84213012 8.494543,0.33442404 c 4.671998,0.18393322 15.560949,0.37256366 24.197668,0.41917875 L 61.875,0.9375 l 0,7.03125 0,7.03125 5.390625,0.05906 c 2.964844,0.03248 11.664252,0.217769 19.332018,0.41174 15.582617,0.394194 16.293927,0.67872 20.527237,8.210864 1.09443,1.947275 2.36249,3.416291 2.81792,3.264483 0.45543,-0.151809 2.16633,-2.770403 3.802,-5.819097 1.63567,-3.048694 3.4638,-5.697135 4.06252,-5.885425 0.59871,-0.188289 3.06153,2.422504 5.47292,5.801763 2.41139,3.37926 4.55114,6.144109 4.75501,6.144109 0.20387,0 1.43189,-2.094227 2.72895,-4.653838 3.28012,-6.47302 5.28887,-7.374895 8.34267,-3.74565 1.31179,1.55897 3.12471,4.086617 4.02874,5.616991 0.90401,1.530373 2.10794,2.782497 2.6754,2.782497 0.56746,0 2.24156,-2.53125 3.72024,-5.625 1.47868,-3.09375 2.97592,-5.625 3.3272,-5.625 1.57595,0 5.61693,4.118645 7.95447,8.107356 l 2.55799,4.364882 1.75685,-2.251744 c 0.96627,-1.238459 2.67322,-4.044713 3.79322,-6.236119 1.12,-2.191406 2.61455,-3.984375 3.32121,-3.984375 1.5348,0 5.1672,3.777049 7.92727,8.242949 l 1.99557,3.228894 3.17149,-5.646478 3.1715,-5.646478 2.60643,1.300261 c 1.43354,0.715144 4.00032,3.241201 5.70394,5.613462 l 3.09751,4.313201 2.28724,-4.062281 c 1.25798,-2.234253 2.63364,-4.695093 3.05703,-5.46853 1.1506,-2.101933 3.97648,-1.231749 6.61483,2.036932 1.28906,1.597034 3.40847,4.149754 4.70979,5.672712 l 2.36604,2.769015 2.72821,-5.70808 c 1.50052,-3.139443 3.25109,-5.708079 3.89015,-5.708079 1.76429,0 6.58019,4.367625 8.83028,8.008335 1.1019,1.782916 2.39551,3.241665 2.87467,3.241665 0.47918,0 1.9659,-2.231987 3.30383,-4.95997 3.40987,-6.952609 5.66944,-6.994785 10.39144,-0.193963 1.95902,2.821453 3.98372,5.001125 4.49934,4.843716 0.51563,-0.157409 2.02378,-2.271879 3.35146,-4.698823 3.61687,-6.611517 3.99771,-6.807476 7.37744,-3.796118 1.62294,1.446052 3.80962,4.018779 4.8593,5.717171 1.04966,1.698393 2.20805,3.087987 2.57421,3.087987 0.36616,0 1.81067,-2.334456 3.21002,-5.18768 4.0857,-8.330585 4.87062,-8.105061 11.98058,3.442272 2.65033,4.304418 3.59519,5.205273 4.50867,4.298652 0.914,-0.907143 1.01578,-0.754908 0.48673,0.728006 -0.53843,1.509236 -0.0492,1.326354 2.50793,-0.9375 2.63443,-2.332284 2.85921,-2.412321 1.31651,-0.46875 -1.02319,1.289062 -2.38769,2.68112 -3.03222,3.093459 -1.3661,0.873966 -1.58282,3.469041 -0.28971,3.469041 0.48519,0 1.14291,-0.421875 1.46158,-0.9375 0.31867,-0.515625 1.29279,-0.924083 2.16471,-0.907685 1.36834,0.02573 1.32871,0.226961 -0.28971,1.470438 -1.03125,0.792341 -2.35744,1.728144 -2.94709,2.079559 -0.78608,0.468488 -0.85068,4.01525 -0.24212,13.295188 0.6758,10.305095 1.1362,12.89738 2.47834,13.95425 1.56092,1.229138 1.56133,1.268001 0.007,0.732547 -2.80025,-0.96512 -2.14216,3.874885 0.70313,5.171285 1.28906,0.587336 2.34375,1.422041 2.34375,1.854901 0,1.13671 -1.3203,0.966714 -2.625,-0.337983 -0.875,-0.875 -1.125,-0.680706 -1.125,0.874324 0,1.099628 0.73828,2.235451 1.64062,2.524049 1.39345,0.445672 1.65211,1.790572 1.71686,8.927018 0.0419,4.621262 -0.27448,8.185542 -0.70312,7.920623 -0.42841,-0.264919 -0.77912,0.994895 -0.77912,2.799583 0,4.751383 1.52462,4.970373 2.26739,0.325669 1.35402,-8.466946 1.66572,-39.188698 0.57219,-56.395788 -1.04711,-16.476616 -1.59137,-20.36503 -2.5029,-17.881728 -0.18927,0.515625 -1.25097,2.414062 -2.35934,4.21875 -2.95423,4.810191 -3.29645,1.711245 -0.36367,-3.293169 4.33117,-7.39059 5.62391,-5.59072 7.07872,9.855669 1.45406,15.438312 1.53687,54.479858 0.13308,62.739525 -1.22606,7.213945 -2.2145,8.529625 -4.71084,6.270455 -1.74529,-1.57946 -1.89258,-1.46949 -4.47528,3.34125 -1.46883,2.73595 -3.44027,5.12097 -4.38098,5.30004 -2.15783,0.41076 -4.86037,-1.98134 -8.12693,-7.19338 l -2.55291,-4.073365 -3.26407,5.948365 c -1.79525,3.2716 -3.85335,5.94836 -4.57356,5.94836 -0.7202,0 -3.28167,-2.87135 -5.69215,-6.38077 l -4.38268,-6.380761 -3.02616,5.677641 c -2.00824,3.76784 -3.60204,5.67764 -4.73823,5.67764 -1.02677,0 -3.2999,-2.25154 -5.67893,-5.625 -2.18178,-3.09375 -4.29961,-5.625 -4.70631,-5.625 -0.40669,0 -2.00171,2.50052 -3.54447,5.5567 -1.54276,3.0562 -3.19826,5.79975 -3.67889,6.0968 -1.73439,1.07191 -3.81788,-0.66458 -7.3203,-6.10106 -1.96159,-3.04482 -3.87686,-5.539728 -4.25615,-5.544237 -0.37931,-0.0047 -2.01134,2.628517 -3.62674,5.851167 -1.61542,3.22266 -3.06626,6.00337 -3.2241,6.17936 -1.05143,1.17228 -4.56195,-1.64141 -7.41987,-5.94706 -1.85148,-2.78936 -3.74645,-5.306504 -4.21105,-5.593642 -0.4646,-0.287137 -2.23926,2.014582 -3.9437,5.114952 -1.95681,3.55944 -3.70298,5.63702 -4.73782,5.63702 -0.97434,0 -3.31206,-2.49415 -5.76538,-6.15121 l -4.12653,-6.151199 -1.98697,3.214989 c -1.09283,1.76824 -1.98907,3.58706 -1.99163,4.04182 -0.003,0.45478 -1.05433,2.09248 -2.33728,3.63935 l -2.33262,2.8125 -2.11585,-2.46993 c -1.16372,-1.35846 -3.43558,-4.43175 -5.04859,-6.82953 l -2.93275,-4.359587 -1.7993,3.548267 c -4.4976,8.86942 -5.00582,9.57767 -6.46955,9.01599 -0.80482,-0.30884 -3.18123,-3.28167 -5.28091,-6.60628 -4.1646,-6.594174 -3.9008,-6.620911 -7.76639,0.7872 -1.24444,2.38487 -2.83151,4.55445 -3.52682,4.82126 -1.50481,0.57745 -4.16745,-2.05784 -7.59476,-7.51676 C 134.22717,99.292969 132.95895,97.5 132.78475,97.5 c -0.17419,0 -1.6954,2.71621 -3.38045,6.03603 -1.68506,3.31982 -3.63781,6.25632 -4.33947,6.52558 -1.2879,0.4942 -4.1957,-2.84179 -7.47631,-8.57723 -0.95853,-1.675786 -1.96823,-3.045661 -2.24378,-3.044171 -0.27554,0.0019 -1.55568,2.005411 -2.84474,4.453121 -1.94738,3.69777 -2.84381,4.49896 -5.30057,4.73747 -2.17357,0.21102 -3.33145,-0.24782 -4.37114,-1.73217 l -1.41432,-2.01923 -1.10913,2.07241 -1.109118,2.07241 -19.129111,-0.45713 -19.129111,-0.45712 0,9.25307 0,9.25307 -5.390625,-0.22993 C 52.582031,125.25972 41.758838,125.04184 31.495335,124.902 Z M 11.563102,100.90524 C 12.604483,98.527987 12.452298,97.605431 10.248571,92.936494 2.5095739,76.540207 3.0192046,47.441947 11.290908,33.422453 l 1.894133,-3.210316 -2.37377,-4.464449 C 9.5056969,23.292241 8.3943162,20.185916 8.3415361,18.844745 8.2595257,16.760814 8.1287035,16.883353 7.4418151,19.6875 4.2913795,32.548806 2.8126459,44.893704 2.8147762,58.315369 c 0.00289,18.237998 1.4253829,37.539206 3.4751776,47.153381 l 1.5990415,7.5 1.2481899,-4.6875 c 0.6865042,-2.57812 1.7781678,-5.89732 2.4259168,-7.37601 z m 202.741778,-0.35836 c -1.055,-11.652916 -4.18787,-49.306626 -5.24563,-63.04688 -0.57557,-7.476563 -1.28572,-14.648438 -1.57812,-15.9375 -0.51693,-2.278999 -0.57446,-2.249648 -2.08195,1.062366 -0.85268,1.873364 -2.10108,4.069727 -2.77421,4.880807 -0.67314,0.811081 -0.943,1.929183 -0.59969,2.484672 0.38472,0.622478 1.35591,0.07975 2.53134,-1.414555 1.04892,-1.333492 2.14045,-2.191214 2.42562,-1.906048 0.28517,0.285166 -0.81762,2.181082 -2.45063,4.213148 -3.5412,4.406553 -4.13289,8.243419 -1.01381,6.574138 1.0754,-0.575543 2.18461,-0.817119 2.46489,-0.536835 0.28028,0.280283 -0.63976,1.033294 -2.04455,1.673356 -2.26058,1.029992 -2.4945,1.545859 -2.03516,4.488226 0.28545,1.828461 0.80963,7.248118 1.16484,12.043682 0.61953,8.363896 0.75483,8.775563 3.32026,10.1022 3.29908,1.706016 3.50621,2.542182 0.33067,1.334843 -2.27189,-0.86377 -2.34331,-0.769636 -2.3294,3.070079 0.0172,4.729954 0.64742,5.890062 3.86457,7.113217 2.29208,0.871448 2.46217,1.382192 2.90748,8.730526 0.26014,4.29271 0.32936,7.967543 0.1538,8.166295 -0.17555,0.198752 -1.37219,-0.328592 -2.65921,-1.171875 -3.0595,-2.004662 -3.29897,-1.944594 -2.55929,0.641978 0.59256,2.072096 7.76031,13.73688 8.45157,13.75408 0.18124,0.005 0.0717,-2.83946 -0.24339,-6.31992 z M 206.25,73.125 c -1.25,-0.807812 -1.25,-0.908788 0,-0.908788 0.77344,0 2.03906,0.408954 2.8125,0.908788 1.25,0.807812 1.25,0.908788 0,0.908788 -0.77344,0 -2.03906,-0.408954 -2.8125,-0.908788 z m 80.19957,17.24305 C 285.67513,81.65781 284.17271,62.929687 283.11087,48.75 282.04903,34.570312 281.067,22.335937 280.92859,21.5625 c -0.22436,-1.253658 -5.30359,7.402496 -5.30359,9.038503 0,0.364835 1.05469,-0.327492 2.34375,-1.538503 1.28906,-1.211011 2.34375,-1.872794 2.34375,-1.470628 0,0.402166 -1.05469,1.984636 -2.34375,3.516599 -2.90586,3.453417 -3.20021,5.978366 -0.53038,4.549514 2.92351,-1.564617 3.52362,-1.05866 1.11953,0.943891 l -2.22333,1.851996 1.08381,13.351188 c 0.6299,7.759485 1.50734,13.496879 2.09505,13.69905 0.67388,0.231812 0.62962,0.58371 -0.13267,1.054832 -1.61174,0.996112 -0.37585,4.207092 2.12424,5.518989 l 2.08875,1.096049 -2.10938,-0.405472 c -2.65814,-0.510958 -2.94065,2.189645 -0.30126,2.879861 1.91983,0.502047 2.29052,2.00054 3.37626,13.648506 0.63486,6.810825 -0.07,7.828134 -2.59853,3.75 l -1.59845,-2.578125 -0.0249,3.553584 c -0.0154,2.188153 0.77989,4.709738 2.06969,6.562496 3.08314,4.42889 4.7256,6.34494 5.10969,5.96085 0.18745,-0.18746 -0.29282,-7.467389 -1.06726,-16.17763 z m -188.01207,12.70423 0,-2.75978 -18.75,0 -18.75,0 0,2.31869 0,2.31868 13.828125,0.25945 c 7.605469,0.14268 16.042969,0.34118 18.75,0.44109 4.864003,0.17953 4.921875,0.14921 4.921875,-2.57813 z m 24.97064,-3.931655 c -0.51199,-5.795303 -6.15846,-76.537972 -6.25387,-78.352528 -0.0183,-0.347516 -0.63259,0.42284 -1.36517,1.711903 -0.73258,1.289062 -1.11188,3.1875 -0.84287,4.21875 0.36492,1.398952 0.26106,1.545314 -0.40905,0.576469 -0.72529,-1.048618 -1.10966,-0.903293 -1.99721,0.755099 -1.55257,2.901004 -0.7842,4.434976 1.2184,2.432383 2.64499,-2.644987 2.7916,-0.983056 0.18641,2.113038 -1.31026,1.557148 -2.38228,3.50856 -2.38228,4.33647 0,1.787367 0.40336,1.845275 3.10851,0.446282 1.79209,-0.926798 1.73431,-0.721977 -0.46288,1.640625 l -2.51062,2.699634 0.82879,10.234326 c 0.45583,5.628879 0.61711,10.576831 0.35838,10.995448 -0.25872,0.418617 0.91998,1.385522 2.61933,2.148676 2.56663,1.152632 2.67156,1.302163 0.61978,0.883194 -2.40976,-0.49207 -2.46994,-0.388561 -2.46994,4.248016 0,4.34988 0.25791,4.911777 3.0453,6.634477 2.51086,1.551795 3.15,2.64589 3.64183,6.234206 1.41071,10.292239 0.56054,12.305438 -3.88238,9.193497 -1.99037,-1.394112 -2.0836,-1.352166 -2.0836,0.9375 0,1.318297 0.52734,2.399085 1.17188,2.401747 0.64453,0.0028 2.64843,2.3208 4.45312,5.151413 1.80469,2.83061 3.44491,5.14875 3.64493,5.15141 0.20003,0.003 0.0935,-3.05375 -0.23679,-6.792035 z m -6.74458,-25.51706 c -1.00089,-0.757038 -1.3731,-1.389851 -0.82712,-1.40625 0.54598,-0.0164 1.81161,0.58958 2.8125,1.34662 1.00089,0.757038 1.3731,1.389851 0.82712,1.40625 -0.54598,0.0164 -1.81161,-0.58958 -2.8125,-1.34662 z m 59.16992,10.234052 C 175.03999,74.08749 173.68979,56.601562 172.83305,45 171.9763,33.398437 170.99122,23.578624 170.64398,23.178191 170.05384,22.497651 165,30.765634 165,32.411644 c 0,0.413408 1.26562,-0.460894 2.8125,-1.942894 3.68542,-3.53085 3.60867,-2.378287 -0.12476,1.873866 -3.07103,3.497699 -2.97754,5.437371 0.1674,3.473326 2.58979,-1.617355 2.31679,0.385922 -0.28491,2.090622 -2.0202,1.323688 -2.08841,1.765216 -1.48788,9.630987 0.34617,4.534034 0.66612,10.023194 0.71102,12.198133 0.0681,3.297486 0.50994,4.193524 2.65975,5.393613 l 2.57813,1.43918 -2.57813,-0.573372 c -4.58653,-1.020035 -3.01052,3.091435 2.6604,6.940416 1.49926,1.017591 1.52416,1.132689 0.1521,0.703125 -0.90234,-0.282505 -2.27343,-0.769719 -3.04687,-1.082698 -0.87432,-0.353802 -1.40625,-0.04221 -1.40625,0.823762 0,0.766048 1.20786,1.893126 2.68413,2.504618 2.59766,1.075987 2.70062,1.374113 3.1958,9.254362 0.28142,4.478409 0.34178,8.315755 0.13412,8.527437 -0.20765,0.211682 -1.15164,-0.31566 -2.09775,-1.171875 -4.28806,-3.880641 -3.48063,0.111563 1.58928,7.857898 4.31531,6.59338 4.36438,6.2716 2.5154,-16.494533 z m 18.75369,-1.807235 c -0.83402,-10.323023 -1.90598,-23.19882 -2.38213,-28.612882 -0.47616,-5.414063 -1.15755,-14.258845 -1.51422,-19.655073 -0.35667,-5.396226 -0.92671,-10.851624 -1.26676,-12.123106 -0.60533,-2.263411 -0.64497,-2.244472 -1.89431,0.905073 -0.70183,1.769271 -1.77526,3.849668 -2.3854,4.623106 -1.24746,1.581328 -2.48675,4.6875 -1.8702,4.6875 0.22154,0 1.25854,-0.918517 2.30442,-2.04115 3.12109,-3.350091 3.2165,-1.243842 0.10423,2.300838 -3.33885,3.802738 -3.84879,5.954954 -1.05693,4.460797 3.15421,-1.688084 4.40735,-1.04091 1.46222,0.755151 l -2.81817,1.718626 0.62072,8.824744 c 0.34139,4.853609 0.66035,10.853548 0.70879,13.333197 0.0485,2.47965 0.40448,4.311925 0.79119,4.071722 0.38672,-0.240202 0.55832,1.849364 0.38133,4.643482 l -0.32179,5.080214 3.29395,1.376302 3.29395,1.376301 0.33543,7.284264 c 0.36051,7.829031 -0.13219,9.608334 -2.02802,7.323995 -1.66855,-2.010491 -3.8733,-1.87438 -3.15282,0.194642 0.31421,0.902344 2.30488,4.232897 4.4237,7.401225 3.5457,5.30198 3.87767,5.56474 4.16982,3.30038 0.17457,-1.35312 -0.36497,-10.906326 -1.199,-21.229348 z m -7.06002,-8.888763 c -2.28697,-1.44632 -0.69256,-1.731712 2.3166,-0.414663 2.1323,0.933261 2.35903,1.237729 0.9375,1.258903 -1.03125,0.01536 -2.4956,-0.364547 -3.2541,-0.84424 z m 60.97102,-9.175986 c -1.92261,-22.815713 -3.72621,-41.713677 -4.00801,-41.995474 -1.16778,-1.167777 -5.21566,7.699643 -5.26196,11.527014 -0.0437,3.610405 0.11709,3.897454 1.70641,3.046875 2.50533,-1.340816 3.229,-1.160776 1.87789,0.467202 -0.6419,0.773437 -1.79738,1.40625 -2.56776,1.40625 -1.15291,0 -1.30158,1.036457 -0.84051,5.859375 0.30809,3.222656 0.82896,9.286917 1.15751,13.476134 0.57511,7.333167 0.70667,7.674752 3.53343,9.174321 2.72129,1.443618 1.77121,1.404487 -1.91418,-0.07883 -1.21541,-0.489188 -1.42669,-0.26063 -0.9375,1.014177 0.34734,0.905126 0.63151,2.192809 0.63151,2.86152 0,0.66871 1.33824,1.770155 2.97388,2.447656 1.63563,0.677502 2.50277,1.388856 1.92697,1.580789 -0.5758,0.191932 -1.95172,-0.135274 -3.0576,-0.727125 -1.73406,-0.928039 -1.96579,-0.842905 -1.6843,0.618778 0.17953,0.932178 1.37736,2.218135 2.66186,2.857682 2.05365,1.022509 2.46044,2.099958 3.37138,8.929797 0.56976,4.271841 0.8845,7.944425 0.69943,8.161307 -0.18508,0.216881 -1.38954,-0.594947 -2.67656,-1.804045 l -2.34006,-2.19837 0,2.025835 c 0,1.553745 7.45399,13.452784 8.10628,12.940304 0.0757,-0.0594 -1.43552,-18.775453 -3.35811,-41.591167 z M 240,31.907985 c 0,-0.497483 0.94922,-1.40262 2.10937,-2.011415 l 2.10938,-1.106899 -1.78593,2.011414 C 240.44876,33.035654 240,33.239834 240,31.907985 Z M 104.48727,88.119426 C 101.78963,54.219809 99.375,22.883648 99.375,21.774104 c 0,-1.456362 -17.073118,-1.610779 -19.749132,-0.178619 -3.666139,1.962057 -1.581917,2.723002 8.264757,3.01744 l 10.078125,0.30136 -10.962465,0.199107 c -10.148974,0.184333 -11.070763,0.353726 -12.421875,2.282707 -0.802675,1.145981 -1.45941,2.400022 -1.45941,2.78676 0,0.386738 6.011719,0.832757 13.359375,0.991155 L 99.84375,31.462009 86.082148,31.668504 72.320547,31.875 70.790992,37.136488 c -1.872862,6.442417 -2.150797,20.422881 -0.553698,27.851691 l 1.173168,5.456928 13.904971,-0.300678 c 12.425186,-0.26868 14.013817,-0.126082 14.927707,1.339946 0.65571,1.051841 0.68345,1.640625 0.0774,1.640625 -1.349843,0 -1.167612,1.941318 0.34509,3.67618 0.72337,0.829601 1.49408,4.490818 1.75367,8.330688 0.39369,5.823371 0.25234,6.769726 -0.94269,6.311152 -2.393226,-0.918366 -1.00823,7.868042 1.71997,10.91151 1.23789,1.38093 2.32838,2.43312 2.42331,2.33818 0.0949,-0.0949 -0.4147,-7.552916 -1.13252,-16.573284 z m 127.19784,1.145985 C 231.16507,83.224122 229.86384,67.734375 228.79348,54.84375 227.72311,41.953125 226.52429,28.875 226.12944,25.78125 l -0.71792,-5.625 -2.54951,4.890709 c -2.93273,5.625834 -3.16485,6.639809 -1.03165,4.506613 2.33975,-2.339747 2.82191,-0.770949 0.51709,1.682422 -1.11923,1.191357 -2.03495,3.102973 -2.03495,4.248039 0,1.76784 0.27358,1.935522 1.81337,1.111452 3.08194,-1.649405 3.47036,-1.065055 0.76012,1.143547 l -2.58276,2.104718 1.10542,13.359375 c 0.60799,7.347656 1.41433,13.359375 1.79187,13.359375 0.37755,0 0.4549,0.885443 0.17189,1.967652 -0.36598,1.399483 0.26847,2.645984 2.19714,4.31681 l 2.7117,2.349156 -2.57813,-1.525921 c -3.50572,-2.074943 -3.41621,-0.101255 0.1646,3.628921 2.42025,2.521222 2.80726,3.731718 3.29175,10.296042 l 0.54903,7.438906 -2.35425,-2.211701 L 225,90.610661 l 0,2.118884 c 0,1.165383 1.58203,4.392305 3.51562,7.170924 3.22372,4.632551 3.54051,4.856791 3.81531,2.700571 0.16482,-1.29331 -0.12579,-7.29434 -0.64582,-13.335629 z m 37.02263,6.125214 C 267.64018,78.91896 263.44965,27.818266 262.89121,24.461969 l -0.53148,-3.194282 -2.79869,4.900317 c -3.1482,5.512305 -3.17861,8.101097 -0.0558,4.74913 1.13149,-1.214503 2.05724,-1.780302 2.05724,-1.257329 0,0.522971 -1.05469,1.941684 -2.34375,3.152695 -1.28906,1.211011 -2.34375,2.986893 -2.34375,3.946404 0,1.479754 0.32018,1.593143 2.10937,0.747 l 2.10938,-0.997564 -2.10938,1.547679 c -1.5491,1.136601 -2.10937,2.498646 -2.10937,5.128001 0,1.969178 0.43903,3.851662 0.97564,4.183299 0.53659,0.331637 0.70818,1.445657 0.38128,2.475601 -0.32689,1.029944 -0.29721,4.831375 0.0659,8.447626 0.62212,6.194742 0.8305,6.654049 3.6031,7.941845 l 2.94278,1.366846 -3.04687,-0.494931 c -4.3878,-0.712749 -4.10535,2.226134 0.46875,4.877387 3.45944,2.005169 2.77204,3.003164 -0.76476,1.110322 -1.38401,-0.740723 -1.81332,-0.665374 -1.81332,0.318267 0,0.708814 1.01958,1.753303 2.26573,2.321089 2.6604,1.212159 4.58889,8.556564 4.11624,15.676208 l -0.28822,4.34164 -2.17136,-2.031377 c -1.19425,-1.117256 -2.39792,-1.804809 -2.67484,-1.527893 C 260.44312,92.681886 268.12777,105 268.92661,105 c 0.22216,0 0.12366,-4.32422 -0.21887,-9.609375 z M 140.05938,88.125 c -0.68814,-8.507813 -2.1472,-26.859375 -3.24236,-40.78125 -1.09517,-13.921875 -2.11461,-25.439935 -2.26544,-25.595691 -0.39089,-0.403683 -4.93281,7.86588 -5.6972,10.372995 -0.58095,1.905475 -0.3605,1.839974 2.40579,-0.714804 2.1619,-1.996598 2.76332,-2.265523 2.07317,-0.92701 -0.53469,1.037019 -1.85499,2.684435 -2.93401,3.660925 -2.0564,1.861014 -2.67685,5.234835 -0.9627,5.234835 0.54953,0 1.92062,-0.447333 3.04688,-0.994073 1.59182,-0.772751 1.45124,-0.450315 -0.63146,1.448222 l -2.6792,2.442297 0.72393,11.442402 c 0.39816,6.293321 0.6259,12.77131 0.50608,14.395532 -0.19583,2.654396 0.14422,3.076365 3.36151,4.171367 2.26093,0.769502 2.99316,1.343858 1.98789,1.559275 -0.87533,0.18757 -2.45736,-0.122357 -3.51563,-0.688727 -1.53988,-0.824119 -1.92413,-0.75113 -1.92413,0.365485 0,0.767387 1.41758,2.067937 3.15018,2.890109 3.0964,1.469339 3.16098,1.624255 3.78228,9.07421 0.34765,4.168643 0.43391,7.77753 0.19169,8.01975 -0.24222,0.242219 -1.4053,-0.235445 -2.58463,-1.061475 -1.17931,-0.82603 -2.45898,-1.501874 -2.8437,-1.501874 -1.25962,0 0.48354,3.225159 3.24609,6.005859 1.48875,1.498528 3.36332,3.726541 4.1657,4.951131 0.80238,1.22458 1.55597,2.10789 1.67465,1.96289 0.11868,-0.145 -0.34724,-7.224568 -1.03538,-15.73238 z m 16.12266,-17.427347 c -1.28417,-16.454022 -2.62513,-34.284521 -2.97989,-39.623331 l -0.64503,-9.70693 -2.68481,4.313538 c -3.55193,5.706692 -3.6612,8.356481 -0.21382,5.185614 l 2.47098,-2.272794 -1.2016,2.34375 c -0.66087,1.289062 -1.77282,2.68112 -2.47098,3.093459 -1.21703,0.718787 -1.83549,4.406541 -0.73901,4.406541 0.29171,0 1.45187,-0.447333 2.57813,-0.994073 1.6141,-0.783561 1.4876,-0.483096 -0.5973,1.418842 l -2.64505,2.412916 0.97727,11.447271 c 0.86605,10.144521 1.22042,11.643931 3.11379,13.175327 l 2.13653,1.728058 -2.10938,-1.033406 c -1.98792,-0.973905 -2.10937,-0.839397 -2.10937,2.336158 0,1.853261 0.3282,3.166724 0.72934,2.918809 0.40113,-0.247914 1.77223,0.399271 3.04687,1.438191 2.3024,1.876603 1.75761,1.901269 -2.60434,0.117917 -2.30197,-0.941148 -1.11016,1.156092 1.5009,2.641171 2.24195,1.27513 2.75639,2.308439 3.26718,6.5625 0.33344,2.776987 0.60992,6.499092 0.6144,8.271342 l 0.008,3.222271 -2.8125,-2.694544 c -4.13203,-3.95874 -3.60008,-1.024296 1.1208,6.182775 2.48374,3.791765 4.05314,5.455655 4.25846,4.514875 0.17883,-0.81941 -0.72554,-14.952226 -2.00972,-31.406247 z m -97.137612,9.134919 c 0.07435,-9.103227 0.270527,-23.617728 0.435935,-32.254447 L 59.781108,31.875 52.624929,31.86059 C 48.689031,31.852665 38.677568,31.581894 30.377236,31.258879 L 15.285723,30.671578 12.239888,36.923714 C 7.7057514,46.230864 6.5759975,52.220102 7.0027857,64.6875 7.3939041,76.112902 9.4370531,85.627724 12.987911,92.559869 l 2.031569,3.966115 20.380885,0.252638 c 11.209487,0.138947 21.084682,0.106969 21.944878,-0.07106 1.38275,-0.286162 1.57966,-2.241712 1.699185,-16.874996 z M 98.4375,85.78125 c 0,-1.153351 -1.635413,-1.40625 -9.09375,-1.40625 -5.525339,0 -8.744267,0.336727 -8.203125,0.858116 1.201663,1.157801 4.434487,1.674124 11.4375,1.826713 4.640072,0.101103 5.859375,-0.164961 5.859375,-1.278579 z M 97.5,80.686297 C 97.5,78.836825 96.994059,78.75 86.217015,78.75 c -10.640426,0 -11.230729,0.09764 -10.365405,1.714513 0.791914,1.479705 2.337157,1.744887 11.282985,1.936298 C 97.055972,82.613094 97.5,82.539649 97.5,80.686297 Z m 0,-5.140872 c 0,-0.731265 0.256069,-1.99689 0.569053,-2.8125 C 98.571384,71.423879 97.087378,71.25 85.412802,71.25 71.791185,71.25 71.214119,71.429486 73.157985,75.061632 74.03779,76.705565 75.220351,76.875 85.814235,76.875 95.277066,76.875 97.5,76.62208 97.5,75.545425 Z M 254.87989,54.28093 c -1.41898,-0.898868 -5.50489,-1.143377 -5.50489,-0.329423 0,1.088649 6.0939,3.092645 6.44239,2.118599 0.19175,-0.535952 -0.23012,-1.341081 -0.9375,-1.789176 z M 146.25,55.336575 c 0,-0.814556 -4.74203,-3.774075 -6.04719,-3.774075 -0.28342,0 -0.51531,0.597656 -0.51531,1.328125 0,0.730468 1.16016,1.75185 2.57812,2.269737 3.39682,1.240624 3.98438,1.26661 3.98438,0.176213 z m 73.125,-0.02408 c 0,-0.515625 -0.15941,-0.9375 -0.35426,-0.9375 -0.19484,0 -1.83966,-0.620642 -3.65516,-1.379204 -3.13178,-1.308544 -3.27685,-1.287248 -2.83153,0.415691 0.2741,1.048143 1.50227,1.95355 2.95204,2.176237 1.36546,0.209737 2.79907,0.444551 3.18578,0.521808 0.38672,0.07726 0.70313,-0.281407 0.70313,-0.797032 z m 18.62372,0.49872 c -0.24133,-0.241328 -1.99915,-1.09074 -3.90625,-1.887581 -2.98325,-1.246481 -3.46747,-1.259362 -3.46747,-0.09224 0,1.197703 1.607,1.762284 6.48438,2.278134 0.73046,0.07726 1.13067,-0.05698 0.88934,-0.298312 z m -74.14524,-1.594522 c -0.20089,-0.602692 -1.92355,-1.635295 -3.82813,-2.294674 -3.18983,-1.10435 -3.46285,-1.059821 -3.46285,0.564781 0,1.653812 1.01543,2.079439 6.40625,2.685227 0.6875,0.07726 1.08563,-0.352643 0.88473,-0.955334 z m 18.02152,0.308785 c 0,-0.817447 -4.10508,-2.962983 -5.66911,-2.962983 -1.58745,0 -0.94679,2.661062 0.74723,3.103757 2.82327,0.737795 4.92188,0.677771 4.92188,-0.140774 z m 17.39894,-0.649048 c -2.03152,-1.536568 -5.21144,-1.846342 -5.21144,-0.507676 0,0.932729 2.12786,1.677682 5.15625,1.805174 1.84958,0.07787 1.85032,0.06027 0.0552,-1.297498 z m 93.0062,-1.908797 c -0.21208,-0.212083 -1.72594,-0.653673 -3.36413,-0.98131 -2.27326,-0.454652 -2.97851,-0.267095 -2.97851,0.792116 0,1.91341 5.97319,3.654604 6.411,1.868816 0.17449,-0.711708 0.14372,-1.467538 -0.0683,-1.679622 z M 110.625,53.06849 c 0,-1.432946 -1.97031,-2.44349 -4.76418,-2.44349 -1.0884,0 -1.79758,0.647664 -1.79645,1.640625 9.4e-4,1.204822 0.873,1.702733 3.28125,1.874437 2.28933,0.163225 3.27938,-0.160284 3.27938,-1.071572 z m 16.70936,-0.266694 c -0.1667,-0.865262 -1.46327,-1.883464 -2.88123,-2.262672 -2.12828,-0.569165 -2.57813,-0.388446 -2.57813,1.035713 0,1.59089 1.38736,2.416644 4.52186,2.691412 0.68352,0.05992 1.10451,-0.597696 0.9375,-1.464453 z m 147.91592,0.885983 c -0.37797,-0.377972 -2.34672,-1.177214 -4.375,-1.776093 -2.98062,-0.880074 -3.68778,-0.851363 -3.68778,0.14973 0,0.681231 0.73828,1.431534 1.64062,1.667341 2.74787,0.718094 7.15312,0.689985 6.42216,-0.04098 z M 238.125,52.5 c 0,-0.515625 -0.15941,-0.9375 -0.35426,-0.9375 -0.19484,0 -1.88234,-0.638474 -3.75,-1.418831 -2.99098,-1.249712 -3.39574,-1.252907 -3.39574,-0.02681 0,0.765614 1.37109,1.787915 3.04687,2.27178 4.11195,1.187281 4.45313,1.195813 4.45313,0.111356 z m -91.88935,-0.703125 c -0.0272,-1.331646 -1.39841,-2.619149 -4.01413,-3.769082 -3.30598,-1.453376 -3.47152,-1.443729 -3.47152,0.202301 0,0.745303 1.16016,1.966175 2.57812,2.713051 2.92595,1.541164 4.92868,1.889564 4.90753,0.85373 z M 181.875,51.267386 c 0,-0.677937 -1.47656,-1.936737 -3.28125,-2.797332 -3.10603,-1.481162 -3.28125,-1.475755 -3.28125,0.101242 0,1.04951 1.12743,2.03582 3.04687,2.665507 1.67579,0.549751 3.15235,1.058869 3.28125,1.131372 0.12891,0.07251 0.23438,-0.422851 0.23438,-1.100789 z m 18.75,-0.08193 c 0,-0.722996 -1.32858,-1.777684 -2.95239,-2.34375 -3.70328,-1.290966 -3.61011,-1.300005 -3.61011,0.350237 0,0.758695 1.37109,1.775334 3.04687,2.259199 1.67579,0.483864 3.15235,0.917801 3.28125,0.964305 0.12891,0.0465 0.23438,-0.506992 0.23438,-1.229988 z m 18.75,0 c 0,-1.144914 -4.42733,-3.372958 -6.70239,-3.372958 -1.71295,0 -0.66852,1.885151 1.78051,3.213773 3.27505,1.776741 4.92188,1.830004 4.92188,0.159188 z M 255,51.299283 c 0,-0.660394 -1.26563,-1.678436 -2.8125,-2.262315 -2.49055,-0.940078 -2.8125,-0.864159 -2.8125,0.663223 0,1.577536 1.36902,2.404847 4.45312,2.691055 C 254.47266,52.451059 255,51.959676 255,51.299283 Z m -90.9375,-0.655232 c 0,-0.505146 -1.72014,-1.796001 -3.82255,-2.868566 l -3.82256,-1.95012 0.30693,2.165441 c 0.23386,1.649922 1.08808,2.303451 3.58818,2.745153 1.80469,0.318841 3.38672,0.635247 3.51562,0.703125 0.12891,0.06788 0.23438,-0.289887 0.23438,-0.795033 z m 110.625,-0.06689 c 0,-0.541935 -1.46302,-1.596622 -3.25114,-2.34375 -3.98547,-1.665232 -4.24886,-1.672517 -4.24886,-0.117502 0,0.682499 1.58203,1.683874 3.51562,2.225279 1.9336,0.541405 3.6211,1.037684 3.75,1.102843 0.12891,0.06516 0.23438,-0.324932 0.23438,-0.866868 z M 110.40498,48.558696 c -0.4321,-1.296282 -6.24738,-3.028793 -7.14694,-2.129239 -0.32936,0.329364 0.21941,1.197165 1.21949,1.928444 2.23801,1.636468 6.45361,1.779274 5.92745,0.200795 z M 127.5,48.355739 c 0,-1.266295 -5.26501,-3.09073 -6.20543,-2.150309 -0.2455,0.245496 0.23668,1.129391 1.0715,1.964213 1.87301,1.873015 5.13393,1.991218 5.13393,0.186096 z m 109.21875,-0.175753 c -1.03125,-0.796335 -2.99276,-2.037453 -4.35892,-2.75804 -2.30493,-1.215757 -2.4499,-1.180125 -2.01196,0.494541 0.453,1.732271 3.88881,3.574442 6.83963,3.667184 1.03244,0.03245 0.90784,-0.340676 -0.46875,-1.403685 z m 53.18047,-0.37099 C 286.27072,45.596702 285,45.455767 285,47.265625 c 0,1.60577 1.41837,2.25065 5.15625,2.344358 l 2.8125,0.07051 -3.06953,-1.871495 z m -36.6437,-0.965186 c -2.29076,-1.908391 -3.88052,-2.37076 -3.88052,-1.128618 0,0.752852 3.55675,2.74533 5.15625,2.888508 0.51562,0.04615 -0.0584,-0.745794 -1.27573,-1.75989 z M 145.3125,47.077133 c 0,-0.72169 -4.90764,-3.952133 -6.00402,-3.952133 -1.74573,0 -0.11236,2.159417 2.48839,3.289811 3.68019,1.59956 3.51563,1.568558 3.51563,0.662322 z m 18.75,-0.490463 c 0,-1.06077 -5.96594,-4.39917 -7.8616,-4.39917 -1.77978,0 1.45255,3.250927 4.23315,4.25749 1.73783,0.629093 3.26517,1.194138 3.39407,1.255657 0.12891,0.06152 0.23438,-0.43977 0.23438,-1.113977 z m 17.8125,0.461966 c 0,-0.420124 -1.47656,-1.467987 -3.28125,-2.328582 -2.86903,-1.368145 -3.28125,-1.386164 -3.28125,-0.143426 0,0.781711 0.94922,1.802832 2.10937,2.269158 2.71189,1.090047 4.45313,1.169364 4.45313,0.20285 z m 17.8125,-0.02316 c 0,-0.681488 -4.00427,-2.96298 -5.20036,-2.96298 -1.24933,0 -0.17584,2.740035 1.21598,3.103757 2.77093,0.724117 3.98438,0.681244 3.98438,-0.140774 z m 18.75,0 c 0,-0.817444 -4.10508,-2.96298 -5.66911,-2.96298 -2.0633,0 -0.66383,1.677402 2.15348,2.581174 1.67579,0.537576 3.15235,1.02048 3.28125,1.073119 0.12891,0.05264 0.23438,-0.258451 0.23438,-0.69131 z m 56.25,-0.5176 c 0,-0.71754 -1.01549,-1.55949 -2.25666,-1.871002 -1.24115,-0.311511 -2.92865,-0.824257 -3.75,-1.139435 -0.98433,-0.377723 -1.49334,-0.05954 -1.49334,0.933505 0,0.972275 0.81156,1.506552 2.28842,1.506552 1.25863,0 2.54916,0.421875 2.86783,0.9375 0.85045,1.376066 2.34375,1.142162 2.34375,-0.367118 z m -38.76365,-3.54677 c -0.80096,-0.448239 -2.07979,-1.438485 -2.84186,-2.200546 -1.93102,-1.931028 -3.39449,-1.727719 -3.39449,0.471575 0,1.190822 0.82711,2.06473 2.30529,2.435731 1.26792,0.318226 2.84995,1.23571 3.51563,2.038854 1.08373,1.307523 1.24492,1.282923 1.54102,-0.235185 0.18189,-0.932497 -0.32463,-2.062189 -1.12559,-2.510429 z M 292.5,46.145851 c 0,-0.829175 -2.54765,-3.127314 -5.90682,-5.32833 -2.21199,-1.449352 -2.26769,-1.426943 -1.85246,0.745241 0.49982,2.614626 7.75928,6.902493 7.75928,4.583089 z M 109.6875,45.024075 c 0,-0.814556 -4.74203,-3.774075 -6.04719,-3.774075 -1.43639,0 -0.24033,2.658592 1.59407,3.543286 2.69877,1.301567 4.45312,1.392489 4.45312,0.230789 z m 17.8125,0.46875 c 0,-0.473931 -5.18012,-3.305325 -6.04719,-3.305325 -1.57797,0 -0.13858,1.856344 2.06282,2.660362 3.01443,1.100966 3.98437,1.257973 3.98437,0.644963 z m 124.61539,-3.23321 c -3.20096,-2.923621 -4.08998,-3.174341 -3.22038,-0.90821 0.49764,1.296836 5.32042,4.533805 5.9799,4.013608 0.18901,-0.149094 -1.05278,-1.546523 -2.75952,-3.105398 z M 143.05044,40.613713 c -3.52946,-3.035911 -6.59642,-2.855686 -4.52046,0.265638 0.37882,0.569581 1.95439,1.695662 3.50127,2.502401 3.73398,1.947378 4.39958,0.139652 1.01919,-2.768039 z m 36.23099,0.558807 c -3.4188,-3.054701 -5.19654,-3.50608 -4.74079,-1.203715 0.32196,1.626572 6.39186,5.348693 7.27775,4.462799 0.28824,-0.288234 -0.85339,-1.754822 -2.53696,-3.259084 z m 20.00284,2.058504 c -0.32503,-0.525923 -1.84384,-1.848342 -3.37512,-2.938711 -2.65287,-1.889015 -2.78415,-1.899092 -2.78415,-0.213739 0,1.070217 1.20331,2.34691 3.04687,3.232701 3.1991,1.537089 4.09766,1.513921 3.1124,-0.08025 z M 215.625,41.25 c -3.76975,-3.173269 -4.95491,-3.487159 -4.51357,-1.195422 0.32802,1.703213 4.00606,3.988194 6.38857,3.968882 0.83317,-0.0067 0.0691,-1.136989 -1.875,-2.77346 z m -89.0625,1.001338 c 0,-0.480514 -1.26562,-1.774865 -2.8125,-2.876338 -2.69894,-1.921817 -2.8125,-1.930179 -2.8125,-0.207102 0,0.987566 0.94922,2.253366 2.10938,2.812888 2.68943,1.297065 3.51562,1.360646 3.51562,0.270552 z m 34.67349,-1.952676 c -3.29028,-2.486492 -5.79274,-3.024441 -5.43121,-1.167537 0.27556,1.41527 6.35394,4.190844 7.30621,3.336239 0.25011,-0.224455 -0.59364,-1.200371 -1.875,-2.168702 z m 110.09168,0.864503 c -0.97649,-1.079009 -2.51844,-2.359477 -3.42655,-2.845485 -1.32151,-0.707248 -1.65112,-0.508112 -1.65112,0.99753 0,1.657254 1.77562,2.679067 6.47343,3.725239 0.20882,0.0465 -0.41927,-0.798275 -1.39576,-1.877284 z M 109.6875,41.587728 c 0,-0.660351 -2.36788,-2.650416 -4.92187,-4.136544 -1.25829,-0.732174 -1.64063,-0.626222 -1.64063,0.45464 0,0.775112 1.16016,2.038689 2.57813,2.807949 2.83321,1.537046 3.98437,1.789547 3.98437,0.873955 z M 59.998931,27.421875 C 59.999758,26.515445 54.665111,26.25 36.447708,26.25 c -18.735026,0 -23.353564,0.23969 -22.580682,1.171875 0.728096,0.878168 6.630724,1.171875 23.551223,1.171875 17.438121,0 22.579856,-0.266842 22.580682,-1.171875 z M 60,21.09375 C 60,19.879128 56.614583,19.6875 35.15625,19.6875 12.476316,19.6875 9.0586888,19.996189 10.9375,21.875 11.28125,22.21875 22.460937,22.5 35.78125,22.5 56.684028,22.5 60,22.30746 60,21.09375 Z M 99.375,18.75 c 0,-0.5588 -3.575306,-0.9375 -8.850922,-0.9375 -4.889342,0 -9.110257,0.419615 -9.430328,0.9375 -0.371603,0.601268 2.802765,0.9375 8.850922,0.9375 5.661887,0 9.430328,-0.374633 9.430328,-0.9375 z M 60,15.986475 C 60,14.094577 59.5858,14.0625 35.15625,14.0625 c -21.246623,0 -24.84375,0.19978 -24.84375,1.379794 0,1.133463 2.252695,1.42636 12.618182,1.640625 6.94,0.143457 18.119688,0.388338 24.84375,0.544181 C 59.57078,17.900502 60,17.842902 60,15.986475 Z m 0,-5.601354 C 60,8.8601358 58.944956,8.6092133 50.859375,8.2111938 32.434259,7.3042022 11.253183,7.4054811 11.109375,8.4012614 11.032031,8.9368177 10.926562,9.8462138 10.875,10.422143 c -0.05759,0.643263 2.437239,1.215642 6.46839,1.484014 3.609177,0.240281 6.631684,0.507348 6.71668,0.593484 0.08499,0.08614 8.206253,0.0335 18.047235,-0.116969 C 58.753325,12.128155 60,11.988975 60,10.385121 Z M 59.546928,5.452998 C 61.727421,3.2727575 57.731437,2.8125 36.621964,2.8125 c -18.119676,0 -22.537672,0.2503738 -23.431957,1.3279209 -0.874046,1.0531618 -0.765259,1.3926224 0.52577,1.640625 3.15245,0.6055755 45.198409,0.3046211 45.831151,-0.3280479 z"
       style="fill:#000000" />
  </g>
</svg>
