<?xml version="1.0" encoding="UTF-8" standalone="no"?>
<!-- Created with Inkscape (http://www.inkscape.org/) -->

<svg
   xmlns:dc="http://purl.org/dc/elements/1.1/"
   xmlns:cc="http://creativecommons.org/ns#"
   xmlns:rdf="http://www.w3.org/1999/02/22-rdf-syntax-ns#"
   xmlns:svg="http://www.w3.org/2000/svg"
   xmlns="http://www.w3.org/2000/svg"
   xmlns:sodipodi="http://sodipodi.sourceforge.net/DTD/sodipodi-0.dtd"
   xmlns:inkscape="http://www.inkscape.org/namespaces/inkscape"
   width="336.97897"
   height="419.96219"
   id="svg2"
   version="1.1"
   inkscape:version="0.47 r22583"
   sodipodi:docname="AN Washer.svg"
   inkscape:export-filename="C:\Aviation\SVGs\Hardware\AN Washer.png"
   inkscape:export-xdpi="90"
   inkscape:export-ydpi="90">
  <defs
     id="defs4">
    <inkscape:perspective
       sodipodi:type="inkscape:persp3d"
       inkscape:vp_x="0 : 526.18109 : 1"
       inkscape:vp_y="0 : 1000 : 0"
       inkscape:vp_z="744.09448 : 526.18109 : 1"
       inkscape:persp3d-origin="372.04724 : 350.78739 : 1"
       id="perspective10" />
    <inkscape:perspective
       id="perspective2824"
       inkscape:persp3d-origin="0.5 : 0.33333333 : 1"
       inkscape:vp_z="1 : 0.5 : 1"
       inkscape:vp_y="0 : 1000 : 0"
       inkscape:vp_x="0 : 0.5 : 1"
       sodipodi:type="inkscape:persp3d" />
    <inkscape:perspective
       id="perspective2912"
       inkscape:persp3d-origin="0.5 : 0.33333333 : 1"
       inkscape:vp_z="1 : 0.5 : 1"
       inkscape:vp_y="0 : 1000 : 0"
       inkscape:vp_x="0 : 0.5 : 1"
       sodipodi:type="inkscape:persp3d" />
    <inkscape:perspective
       id="perspective3137"
       inkscape:persp3d-origin="0.5 : 0.33333333 : 1"
       inkscape:vp_z="1 : 0.5 : 1"
       inkscape:vp_y="0 : 1000 : 0"
       inkscape:vp_x="0 : 0.5 : 1"
       sodipodi:type="inkscape:persp3d" />
    <inkscape:perspective
       id="perspective3159"
       inkscape:persp3d-origin="0.5 : 0.33333333 : 1"
       inkscape:vp_z="1 : 0.5 : 1"
       inkscape:vp_y="0 : 1000 : 0"
       inkscape:vp_x="0 : 0.5 : 1"
       sodipodi:type="inkscape:persp3d" />
    <inkscape:perspective
       id="perspective3186"
       inkscape:persp3d-origin="0.5 : 0.33333333 : 1"
       inkscape:vp_z="1 : 0.5 : 1"
       inkscape:vp_y="0 : 1000 : 0"
       inkscape:vp_x="0 : 0.5 : 1"
       sodipodi:type="inkscape:persp3d" />
    <inkscape:perspective
       id="perspective3235"
       inkscape:persp3d-origin="0.5 : 0.33333333 : 1"
       inkscape:vp_z="1 : 0.5 : 1"
       inkscape:vp_y="0 : 1000 : 0"
       inkscape:vp_x="0 : 0.5 : 1"
       sodipodi:type="inkscape:persp3d" />
    <inkscape:perspective
       id="perspective3273"
       inkscape:persp3d-origin="0.5 : 0.33333333 : 1"
       inkscape:vp_z="1 : 0.5 : 1"
       inkscape:vp_y="0 : 1000 : 0"
       inkscape:vp_x="0 : 0.5 : 1"
       sodipodi:type="inkscape:persp3d" />
    <filter
       inkscape:collect="always"
       id="filter4098"
       color-interpolation-filters="sRGB">
      <feGaussianBlur
         inkscape:collect="always"
         stdDeviation="0.54026094"
         id="feGaussianBlur4100" />
    </filter>
  </defs>
  <sodipodi:namedview
     id="base"
     pagecolor="#ffffff"
     bordercolor="#666666"
     borderopacity="1.0"
     inkscape:pageopacity="0.0"
     inkscape:pageshadow="2"
     inkscape:zoom="1.240191"
     inkscape:cx="118.59811"
     inkscape:cy="194.86246"
     inkscape:document-units="px"
     inkscape:current-layer="layer1"
     showgrid="false"
     inkscape:window-width="1600"
     inkscape:window-height="840"
     inkscape:window-x="-4"
     inkscape:window-y="-4"
     inkscape:window-maximized="1" />
  <metadata
     id="metadata7">
    <rdf:RDF>
      <cc:Work
         rdf:about="">
        <dc:format>image/svg+xml</dc:format>
        <dc:type
           rdf:resource="http://purl.org/dc/dcmitype/StillImage" />
        <dc:title></dc:title>
      </cc:Work>
    </rdf:RDF>
  </metadata>
  <g
     inkscape:label="Layer 1"
     inkscape:groupmode="layer"
     id="layer1"
     transform="translate(-78.186672,-55.762309)">
    <path
       style="fill:#bbb8bb;fill-opacity:1"
       d="m -33.90685,405.84987 c 0,-0.24469 -1.6016,1.11903 -3.5591,3.03049 -1.95751,1.91144 -3.55911,3.67556 -3.55911,3.92025 0,0.2447 1.6016,-1.11902 3.55911,-3.03048 1.9575,-1.91146 3.5591,-3.67559 3.5591,-3.92026 z"
       id="path3080" />
    <g
       id="g4102">
      <path
         id="path3126-4"
         d="M 308.4375,58.0625 C 247.42334,57.537103 169.34548,115.13635 124.875,199.125 c -54.732893,103.37061 -62.579193,214.06825 -2.5,253.0625 68.16167,44.24015 176.23585,-34.94189 230.96875,-138.3125 54.7329,-103.37063 56.0791,-210.02542 -6,-245.75 -11.63983,-6.698357 -24.82606,-9.941254 -38.90625,-10.0625 z m -53.03125,148.375 c 3.70502,0.032 7.15588,0.88651 10.21875,2.65625 16.33529,9.43858 15.99599,37.5953 1.59375,64.90625 -14.40224,27.31093 -42.8454,48.25092 -60.78125,36.5625 -15.80904,-10.30244 -13.74599,-39.56406 0.65625,-66.875 11.70182,-22.19015 32.25743,-37.38882 48.3125,-37.25 z"
         style="fill:#c6c5ce;fill-opacity:1;stroke:#000000;stroke-width:2;stroke-linecap:round;stroke-linejoin:round;stroke-miterlimit:4;stroke-opacity:1;stroke-dashoffset:0;filter:url(#filter4098)" />
      <path
         id="path3126"
         d="M 328.4375,68.0625 C 267.42334,67.537102 189.34548,125.13635 144.875,209.125 c -54.732892,103.37061 -62.579192,214.06825 -2.5,253.0625 68.16167,44.24015 176.23586,-34.94189 230.96875,-138.3125 54.73289,-103.37063 56.07911,-210.02542 -6,-245.75 -11.63983,-6.698357 -24.82606,-9.941254 -38.90625,-10.0625 z m -53.03125,148.375 c 3.70502,0.032 7.15588,0.88651 10.21875,2.65625 16.33529,9.43858 15.99599,37.5953 1.59375,64.90625 -14.40224,27.31093 -42.8454,48.25092 -60.78125,36.5625 -15.80904,-10.30244 -13.74599,-39.56406 0.65625,-66.875 11.70182,-22.19015 32.25743,-37.38882 48.3125,-37.25 z"
         style="fill:#e7e3fb;fill-opacity:1;stroke:#000000;stroke-width:2;stroke-linecap:round;stroke-linejoin:round;stroke-miterlimit:4;stroke-opacity:1;stroke-dashoffset:0" />
    </g>
  </g>
</svg>
